<svg xmlns="http://www.w3.org/2000/svg" width="256" height="256" viewBox="0 0 256 256"><defs><linearGradient id="woodBase" x1="0" y1="0" x2="0" y2="1"><stop offset="0%" stop-color="#c08457"/><stop offset="100%" stop-color="#8b5e3c"/></linearGradient></defs><rect width="256" height="256" fill="url(#woodBase)"/><g stroke="#6b442d" stroke-width="2" opacity="0.35"><path d="M0 18 C 40 8, 70 28, 120 18 S 210 6, 256 18"/><path d="M0 58 C 35 48, 80 68, 130 58 S 220 48, 256 58"/><path d="M0 98 C 45 88, 85 108, 145 98 S 220 88, 256 98"/><path d="M0 138 C 38 128, 90 148, 150 138 S 225 126, 256 138"/><path d="M0 178 C 40 168, 75 188, 140 178 S 220 168, 256 178"/><path d="M0 218 C 45 208, 95 230, 155 218 S 230 210, 256 218"/></g></svg>