<svg xmlns="http://www.w3.org/2000/svg" width="1200" height="800" viewBox="0 0 1200 800"><rect width="1200" height="800" fill="#233b55"/><circle cx="930" cy="155" r="90" fill="#f4da9c"/><path d="M0 800V440H150V245H320V400H460V160H640V355H820V300H1000V475H1200V800Z" fill="#527b83"/><path d="M0 800V610H200V465H395V585H580V430H785V610H970V530H1200V800Z" fill="#b77a5e"/><g fill="#f4da9c"><path d="M195 295H235V345H195ZM270 295H300V345H270ZM505 210H545V265H505ZM585 210H620V265H585ZM505 305H545V355H505ZM585 305H620V355H585ZM860 350H905V400H860ZM935 350H975V400H935ZM240 510H280V555H240ZM325 510H365V555H325ZM625 485H665V535H625ZM710 485H750V535H710Z"/></g><path d="M0 755H1200" stroke="#edd5af" stroke-width="12"/></svg>
